<svg width="24" height="24" viewBox="0 0 24 24" fill="none" xmlns="http://www.w3.org/2000/svg">
<circle cx="12" cy="12" r="12" fill="#0E0E10"/>
<g clip-path="url(#clip0_222_5012)">
<path d="M18.629 15.4667L16.3673 17.8364C16.3186 17.8884 16.2593 17.9298 16.1934 17.958C16.1274 17.9862 16.0562 18.0005 15.9843 18H5.26305C5.21195 17.9997 5.162 17.985 5.11916 17.9576C5.07632 17.9302 5.0424 17.8912 5.02144 17.8453C5.00087 17.7996 4.99458 17.7488 5.00338 17.6995C5.01236 17.65 5.03555 17.6041 5.07021 17.5671L7.32918 15.1973C7.37789 15.1453 7.43713 15.1038 7.50308 15.0757C7.56904 15.0475 7.64025 15.0332 7.71215 15.0338H18.4334C18.4848 15.0324 18.5355 15.0461 18.5789 15.0731C18.6224 15.1001 18.6567 15.1392 18.6775 15.1855C18.6983 15.2317 18.7047 15.283 18.6958 15.3329C18.6869 15.3827 18.6632 15.4288 18.6276 15.4653L18.629 15.4667ZM16.3669 10.6933C16.3173 10.6423 16.2579 10.6016 16.1921 10.5735C16.1264 10.5454 16.0556 10.5306 15.9839 10.5298H5.26305C5.2119 10.5301 5.16192 10.5449 5.11907 10.5724C5.07623 10.5999 5.04233 10.6389 5.02144 10.6849C5.0009 10.7306 4.99461 10.7814 5.00338 10.8307C5.01241 10.8804 5.03544 10.9253 5.07021 10.9627L7.32918 13.3338C7.3775 13.3849 7.43757 13.4262 7.5026 13.4538C7.56899 13.4822 7.63944 13.496 7.71215 13.4973H18.4334C18.4843 13.4974 18.534 13.4828 18.5765 13.4553C18.619 13.4278 18.6523 13.3887 18.6723 13.3427C18.693 13.2969 18.6993 13.2462 18.6906 13.1969C18.682 13.1476 18.6586 13.102 18.6236 13.0658L16.3655 10.6947L16.3669 10.6933ZM5.2626 8.9911H15.9839C16.0559 8.99072 16.1272 8.97622 16.1934 8.94843C16.2598 8.91999 16.3185 8.87999 16.3669 8.82754L18.6294 6.45777C18.6555 6.43031 18.6752 6.39757 18.6871 6.36183C18.699 6.32608 18.7027 6.28822 18.6981 6.25089C18.6935 6.21357 18.6806 6.17769 18.6604 6.14578C18.6402 6.11387 18.6131 6.08671 18.5811 6.06621C18.5377 6.03881 18.4868 6.02488 18.4352 6.02621H7.71215C7.6408 6.02621 7.56899 6.04132 7.5026 6.06843C7.43675 6.09639 7.37765 6.13774 7.32918 6.18977L5.07021 8.55954C5.03566 8.59624 5.01266 8.64202 5.004 8.69132C4.99534 8.74062 5.0014 8.79134 5.02144 8.83732C5.04237 8.88312 5.07622 8.92204 5.11897 8.94946C5.16172 8.97688 5.21157 8.99164 5.2626 8.99199V8.9911Z" fill="url(#paint0_linear_222_5012)"/>
</g>
<defs>
<linearGradient id="paint0_linear_222_5012" x1="6.15634" y1="18.2853" x2="17.1093" y2="5.64969" gradientUnits="userSpaceOnUse">
<stop offset="0.08" stop-color="#9945FF"/>
<stop offset="0.3" stop-color="#8752F3"/>
<stop offset="0.5" stop-color="#5497D5"/>
<stop offset="0.6" stop-color="#43B4CA"/>
<stop offset="0.72" stop-color="#28E0B9"/>
<stop offset="0.97" stop-color="#19FB9B"/>
</linearGradient>
<clipPath id="clip0_222_5012">
<rect width="14" height="12" fill="white" transform="translate(5 6)"/>
</clipPath>
</defs>
</svg>
